<svg width="27" height="24" viewBox="0 0 27 24" fill="none" xmlns="http://www.w3.org/2000/svg">
<path d="M25.0865 2.65986C23.8107 1.41026 22.0481 0.785728 19.7978 0.785728C19.1751 0.785728 18.5396 0.894035 17.8918 1.11054C17.2438 1.32721 16.641 1.61952 16.084 1.98726C15.5263 2.3549 15.047 2.70015 14.645 3.02247C14.2434 3.34491 13.8615 3.68756 13.5 4.05017C13.1383 3.68756 12.7566 3.34491 12.3549 3.02247C11.953 2.70015 11.4735 2.35511 10.9159 1.98726C10.3584 1.61936 9.75571 1.32726 9.10787 1.11054C8.46008 0.894088 7.82464 0.785728 7.20192 0.785728C4.95184 0.785728 3.18912 1.41042 1.91349 2.65986C0.637866 3.9092 0 5.64211 0 7.85874C0 8.53383 0.118211 9.22929 0.354159 9.9443C0.590107 10.6597 0.858985 11.2693 1.16027 11.773C1.46149 12.2766 1.80309 12.7678 2.1848 13.2464C2.56651 13.725 2.84546 14.0549 3.02104 14.2362C3.19677 14.4176 3.33493 14.5487 3.43536 14.6294L12.837 23.7277C13.0179 23.9091 13.2388 24 13.4999 24C13.7611 24 13.9822 23.9091 14.1629 23.7277L23.5497 14.6593C25.8499 12.3523 26.9999 10.0853 26.9999 7.85852C27 5.64173 26.3622 3.90899 25.0865 2.65986ZM22.2388 13.2389L13.5 21.6872L4.74629 13.2236C2.86789 11.3399 1.92885 9.55125 1.92885 7.85852C1.92885 7.04252 2.03682 6.32201 2.25267 5.69748C2.46866 5.07283 2.74488 4.57646 3.08136 4.20871C3.41789 3.84086 3.82715 3.54135 4.30928 3.30944C4.79168 3.07774 5.26373 2.92153 5.7257 2.84096C6.18768 2.7605 6.67979 2.72021 7.20219 2.72021C7.72443 2.72021 8.28704 2.84853 8.8897 3.10553C9.49227 3.36243 10.0472 3.68486 10.5544 4.07272C11.0617 4.46084 11.4962 4.82351 11.8579 5.16092C12.2195 5.49865 12.5207 5.80827 12.7618 6.09042C12.9425 6.31217 13.1888 6.42301 13.5001 6.42301C13.8114 6.42301 14.0574 6.31217 14.2383 6.09042C14.4794 5.80827 14.7809 5.49849 15.1424 5.16092C15.504 4.82351 15.9385 4.461 16.4456 4.07272C16.9529 3.68486 17.5078 3.36243 18.1107 3.10553C18.7132 2.84858 19.2759 2.72021 19.7982 2.72021C20.3205 2.72021 20.8125 2.7605 21.2747 2.84096C21.7368 2.92147 22.2089 3.07774 22.6911 3.30944C23.1733 3.5413 23.5825 3.84102 23.919 4.20871C24.2554 4.57646 24.5318 5.07283 24.7478 5.69748C24.9634 6.32201 25.0714 7.04252 25.0714 7.85852C25.0713 9.55125 24.1273 11.3449 22.2388 13.2389Z" fill="black"/>
</svg>
