<svg width="13" height="13" viewBox="0 0 13 13" fill="none" xmlns="http://www.w3.org/2000/svg">
<g clip-path="url(#clip0_105_604)">
<path d="M12.9938 10.2571C13.0213 10.4681 12.957 10.6516 12.8011 10.8075L10.9708 12.6241C10.8882 12.7158 10.7804 12.7939 10.6474 12.858C10.5143 12.9223 10.3836 12.9636 10.2552 12.9819C10.246 12.9819 10.2184 12.9843 10.1725 12.9888C10.1267 12.9934 10.0671 12.9957 9.9937 12.9957C9.81934 12.9957 9.53719 12.9659 9.14726 12.9063C8.75733 12.8466 8.28027 12.6998 7.71606 12.4659C7.15172 12.2319 6.51181 11.8809 5.79619 11.4131C5.08058 10.9452 4.31905 10.3029 3.51167 9.48637C2.86944 8.85331 2.3373 8.24777 1.91526 7.66978C1.49322 7.09175 1.15375 6.55732 0.896858 6.06647C0.639941 5.57562 0.447271 5.13064 0.318824 4.73154C0.190377 4.33243 0.103216 3.98838 0.0573424 3.69937C0.0114685 3.41037 -0.00688109 3.18329 0.0022937 3.01814C0.0114685 2.853 0.0160559 2.76125 0.0160559 2.7429C0.0344055 2.61445 0.075692 2.48371 0.139916 2.35068C0.204139 2.21764 0.282125 2.10984 0.373873 2.02727L2.20424 0.196897C2.33269 0.0684502 2.47949 0.00422668 2.64463 0.00422668C2.7639 0.00422668 2.86942 0.0386321 2.96116 0.107443C3.05291 0.176254 3.1309 0.261121 3.19512 0.362043L4.66767 3.15577C4.75025 3.30256 4.77318 3.46312 4.73648 3.63744C4.69979 3.81176 4.6218 3.95856 4.50253 4.07783L3.82818 4.75218C3.80983 4.77053 3.79377 4.80035 3.78001 4.84163C3.76625 4.88292 3.75937 4.91733 3.75937 4.94485C3.79607 5.13752 3.87864 5.35772 4.00709 5.60543C4.11719 5.82563 4.28692 6.09399 4.51629 6.41052C4.74566 6.72705 5.07136 7.09173 5.4934 7.50459C5.90627 7.92668 6.27326 8.25463 6.59438 8.48863C6.91543 8.7225 7.18388 8.8946 7.39949 9.00469C7.6151 9.11479 7.78024 9.18131 7.89491 9.20418L8.06689 9.23861C8.08524 9.23861 8.11512 9.2317 8.15636 9.21796C8.19765 9.20418 8.22747 9.18814 8.24584 9.16977L9.03026 8.37157C9.1955 8.22479 9.38808 8.15139 9.6083 8.15139C9.76431 8.15139 9.8881 8.1789 9.97985 8.23397H9.99359L12.6497 9.80286C12.8424 9.92222 12.9571 10.0736 12.9938 10.2571Z" fill="#010002"/>
</g>
<defs>
<clipPath id="clip0_105_604">
<rect width="13" height="13" fill="white"/>
</clipPath>
</defs>
</svg>
