<svg width="23" height="23" viewBox="0 0 23 23" fill="none" xmlns="http://www.w3.org/2000/svg">
<g clip-path="url(#clip0_105_661)">
<path d="M8.94068 0C4.00414 0 0.00146484 4.00268 0.00146484 8.93925C0.00146484 13.8758 4.00414 17.8785 8.94072 17.8785C10.839 17.8785 12.5995 17.2864 14.0466 16.2779L14.0477 16.2768L20.6774 22.9066C20.8004 23.0296 20.9961 23.0328 21.1223 22.9066L22.9091 21.1198C23.0321 20.9967 23.0258 20.7927 22.9081 20.6749L16.2793 14.0462C17.2878 12.598 17.8799 10.8375 17.8799 8.93925C17.8799 4.00268 13.8773 0 8.94068 0ZM8.94068 15.7751C5.16515 15.7751 2.10479 12.7148 2.10479 8.93925C2.10479 5.16373 5.16519 2.10336 8.94068 2.10336C12.7162 2.10336 15.7766 5.16373 15.7766 8.93925C15.7766 12.7148 12.7162 15.7751 8.94068 15.7751Z" fill="black"/>
</g>
<defs>
<clipPath id="clip0_105_661">
<rect width="23" height="23" fill="white"/>
</clipPath>
</defs>
</svg>
