<svg width="19" height="24" viewBox="0 0 19 24" fill="none" xmlns="http://www.w3.org/2000/svg">
<path d="M9.53621 12.4444C6.49427 12.4444 4.04382 9.78223 4.04382 6.47749C4.04382 3.17275 6.49427 0.510605 9.53621 0.510605C12.5781 0.510605 15.0286 3.17275 15.0286 6.47749C15.0286 9.78223 12.5781 12.4444 9.53621 12.4444ZM9.53621 2.34657C7.42375 2.34657 5.73379 4.18254 5.73379 6.47749C5.73379 8.77245 7.42375 10.6084 9.53621 10.6084C11.6487 10.6084 13.3386 8.77245 13.3386 6.47749C13.3386 4.18254 11.6487 2.34657 9.53621 2.34657Z" fill="black"/>
<path d="M2.10019 19.6964V23.6588C2.10019 24.1137 0.4104 24.1137 0.4104 23.6588V19.6964C0.4104 16.0703 4.50848 13.2707 9.7052 13.2707C14.9019 13.2707 19 16.0703 19 19.6964V23.6588C19 24.1137 17.3102 24.1137 17.3102 23.6588V19.6964C17.3102 17.2179 13.8456 15.1065 9.7052 15.1065C5.56483 15.1065 2.10019 17.2179 2.10019 19.6964Z" fill="black"/>
</svg>
