<svg width="17" height="11" viewBox="0 0 17 11" fill="none" xmlns="http://www.w3.org/2000/svg">
<path d="M16.9098 9.93421C16.8893 9.8839 16.8701 9.84216 16.8522 9.80873C16.5573 9.20627 15.9937 8.46681 15.1617 7.59011L15.1441 7.57004L15.1353 7.56019L15.1264 7.5501H15.1175C14.7399 7.14187 14.5007 6.86738 14.4006 6.72685C14.2174 6.45915 14.1763 6.18818 14.2765 5.91362C14.3472 5.70618 14.613 5.26809 15.0731 4.59877C15.3151 4.24405 15.5068 3.95975 15.6484 3.74556C16.6693 2.20629 17.1119 1.22268 16.9761 0.794338L16.9234 0.69424C16.8879 0.633977 16.7965 0.578847 16.6491 0.528569C16.5014 0.478397 16.3127 0.4701 16.0825 0.503537L13.5334 0.523507C13.4921 0.506912 13.4331 0.508458 13.3563 0.528569C13.2796 0.548681 13.2412 0.558772 13.2412 0.558772L13.1968 0.58391L13.1616 0.614112C13.1321 0.634082 13.0997 0.669206 13.0642 0.719414C13.029 0.769445 12.9995 0.828161 12.9759 0.895069C12.6984 1.70482 12.3829 2.45768 12.0287 3.15362C11.8104 3.56861 11.6099 3.92825 11.4267 4.23276C11.2439 4.53717 11.0904 4.76145 10.9666 4.90522C10.8426 5.04912 10.7307 5.16441 10.6302 5.2515C10.5298 5.33862 10.4532 5.37544 10.4002 5.36197C10.347 5.3485 10.297 5.33514 10.2496 5.32178C10.167 5.26152 10.1006 5.17956 10.0505 5.07584C10.0002 4.97212 9.96639 4.84158 9.94869 4.68431C9.93108 4.52694 9.92066 4.39158 9.91768 4.27777C9.91492 4.1641 9.9162 4.00331 9.92218 3.79588C9.92832 3.58833 9.93108 3.44791 9.93108 3.37428C9.93108 3.11994 9.93545 2.84391 9.94422 2.54611C9.95315 2.24831 9.96037 2.01236 9.96642 1.83853C9.97243 1.66453 9.97522 1.48043 9.97522 1.28636C9.97522 1.09228 9.96481 0.940072 9.94422 0.829602C9.92388 0.719273 9.89267 0.612178 9.85153 0.508353C9.81014 0.404634 9.74956 0.3244 9.67007 0.267443C9.59043 0.210555 9.49141 0.165411 9.37357 0.131869C9.0608 0.0516004 8.66252 0.00817886 8.17856 0.0014283C7.08107 -0.0119322 6.37588 0.0684415 6.06313 0.242444C5.93922 0.315962 5.82709 0.416412 5.72683 0.543477C5.62059 0.690759 5.60577 0.771133 5.68247 0.784353C6.03657 0.84451 6.28724 0.988416 6.43478 1.21593L6.48795 1.33649C6.5293 1.42348 6.5706 1.57747 6.61192 1.79827C6.65319 2.01907 6.67982 2.26332 6.69154 2.53088C6.72099 3.01949 6.72099 3.43774 6.69154 3.78568C6.66199 4.13376 6.63409 4.40473 6.60746 4.59881C6.58083 4.79288 6.54102 4.95015 6.48795 5.07057C6.43478 5.19103 6.39941 5.26465 6.38167 5.29137C6.36397 5.31809 6.34922 5.33493 6.3375 5.34154C6.2608 5.37487 6.18103 5.39186 6.09848 5.39186C6.01579 5.39186 5.91553 5.34495 5.79754 5.25122C5.67958 5.15748 5.55716 5.02873 5.43027 4.86475C5.30338 4.70073 5.16027 4.47153 5.0009 4.17711C4.84164 3.88268 4.6764 3.53471 4.50527 3.1332L4.36369 2.84201C4.27518 2.65468 4.15427 2.38191 4.00085 2.02396C3.84733 1.66586 3.71163 1.31947 3.59367 0.984865C3.54652 0.844334 3.47568 0.737345 3.38128 0.663722L3.33698 0.63352C3.30753 0.606799 3.26025 0.578425 3.19539 0.548188C3.13045 0.517987 3.06268 0.496328 2.99181 0.483003L0.566585 0.502974C0.318758 0.502974 0.150606 0.566647 0.0620652 0.693817L0.0266304 0.753975C0.00892846 0.787481 0 0.840994 0 0.914652C0 0.988276 0.0177019 1.07863 0.0531367 1.18562C0.407175 2.1293 0.792183 3.03939 1.20816 3.91605C1.62414 4.79271 1.98562 5.49888 2.29238 6.03393C2.5992 6.56937 2.91195 7.07471 3.23061 7.54971C3.54928 8.02489 3.76021 8.3294 3.86342 8.46318C3.96674 8.59721 4.04791 8.69741 4.1069 8.76432L4.32822 9.0052C4.46984 9.16584 4.6778 9.35823 4.95219 9.58237C5.22665 9.80665 5.5305 10.0274 5.86389 10.2451C6.19734 10.4624 6.58526 10.6398 7.02787 10.7769C7.47042 10.9142 7.90115 10.9693 8.32014 10.9427H9.33805C9.54449 10.9225 9.70089 10.8489 9.80719 10.7218L9.84241 10.6715C9.8661 10.6316 9.88826 10.5695 9.90872 10.486C9.92943 10.4024 9.93973 10.3102 9.93973 10.21C9.93368 9.92229 9.95299 9.66299 9.99714 9.43214C10.0413 9.20135 10.0915 9.02735 10.1478 8.91016C10.204 8.79308 10.2674 8.69428 10.338 8.61419C10.4087 8.53392 10.4592 8.4853 10.4887 8.46856C10.5181 8.45172 10.5416 8.4403 10.5593 8.43344C10.7009 8.37993 10.8676 8.43175 11.0595 8.58916C11.2513 8.74643 11.4312 8.94061 11.5995 9.17139C11.7677 9.40239 11.9698 9.66155 12.2058 9.94926C12.4419 10.2371 12.6484 10.451 12.8253 10.5918L13.0023 10.7122C13.1205 10.7926 13.2739 10.8662 13.4627 10.9331C13.6513 11 13.8164 11.0167 13.9583 10.9833L16.2241 10.9432C16.4482 10.9432 16.6226 10.9011 16.7463 10.8176C16.8702 10.734 16.9439 10.6418 16.9676 10.5416C16.9913 10.4412 16.9926 10.3274 16.9721 10.2001C16.9511 10.0732 16.9304 9.98438 16.9098 9.93421Z" fill="black"/>
</svg>
